#!OML:ASF E:\emotionWalksFemale\Project 1\Capture day 1\Session 1\Female1.ASF
:FULLY-SPECIFIED
:DEGREES
583
root 9.68331 15.0127 10.3325 172.023 9.7657 184.187
lowerback 1.376 7.92866 10.2809
upperback -5.51937 11.3251 -0.713542
thorax -4.51407 5.29824 -6.78569
lowerneck 1.60354 -4.19864 -12.3734
upperneck 3.18026 -5.91389 6.16288
head 1.36773 -3.0756 4.20554
rclavicle -1.11121e-013 -2.22639e-014
rhumerus -23.1465 -8.18251 -76.4376
rradius 33.1496
rwrist 17.5164
rhand -1.32249 -52.451
rfingers 7.12502
rthumb 24.3231 -80.9278
lclavicle -1.11121e-013 -2.22639e-014
lhumerus -62.8026 20.4371 43.7034
lradius 34.7754
lwrist -14.6421
lhand -7.22785 -20.7268
lfingers 7.12502
lthumb 18.6517 8.39903
rfemur 26.4141 7.14447 39.2106
rtibia 1.08139e-013
rfoot -16.1898 -21.7817
rtoes -12.3826
lfemur -26.6575 -12.0101 -20.4873
ltibia 32.9297
lfoot -23.1358 24.5861
ltoes 12.1641
584
root 9.67814 15.0015 10.2402 172.165 10.3011 184.579
lowerback 1.59118 7.84724 10.9742
upperback -5.46816 11.2823 -0.468443
thorax -4.52287 5.2526 -6.92593
lowerneck 1.3084 -3.95467 -12.1664
upperneck 3.11013 -5.53617 5.9092
head 1.34145 -2.87857 4.07658
rclavicle -2.70347e-014 -1.11319e-014
rhumerus -22.8129 -8.30213 -76.0324
rradius 33.2513
rwrist 17.5463
rhand -0.447337 -53.5023
rfingers 7.12502
rthumb 25.1618 -81.8639
lclavicle -2.70347e-014 -1.11319e-014
lhumerus -62.5632 20.9478 43.2371
lradius 34.6429
lwrist -14.8133
lhand -7.57262 -21.0156
lfingers 7.12502
lthumb 18.32 8.14173
rfemur 26.716 7.21033 39.5884
rtibia 3.18055e-014
rfoot -15.8508 -21.4569
rtoes -12.0246
lfemur -26.5582 -11.7837 -20.1711
ltibia 32.703
lfoot -22.8492 25.0507
ltoes 12.7416
585
root 9.67406 14.9946 10.1431 172.372 10.68 184.596
lowerback 1.58115 7.75289 11.2146
upperback -5.40341 11.1669 -0.337289
thorax -4.45632 5.19439 -6.91057
lowerneck 0.989836 -3.71844 -11.9098
upperneck 2.87866 -5.16139 5.66702
head 1.26735 -2.67719 3.94311
rclavicle 3.43897e-014 3.97569e-015
rhumerus -22.352 -8.42949 -75.6027
rradius 33.231
rwrist 17.6782
rhand -0.305002 -53.849
rfingers 7.12502
rthumb 25.2982 -82.1914
lclavicle 3.43897e-014 3.97569e-015
lhumerus -62.3514 21.2069 43.0808
lradius 34.8405
lwrist -14.5519
lhand -7.99039 -20.7941
lfingers 7.12502
lthumb 17.9181 8.40048
rfemur 26.9377 7.23817 39.5157
rtibia 2.22639e-014
rfoot -15.9859 -21.0812
rtoes -10.3703
lfemur -26.5421 -11.4914 -20.3076
ltibia 32.5794
lfoot -22.7353 25.4878
ltoes 13.0678
586
root 9.67203 14.9899 10.0441 172.732 10.8005 184.202
lowerback 1.29526 7.63704 11.0412
upperback -5.4283 10.9715 -0.410802
thorax -4.37271 5.11126 -6.85723
lowerneck 0.776632 -3.51266 -11.5459
upperneck 2.70797 -4.84639 5.41628
head 1.19854 -2.50904 3.78648
rclavicle -1.13705e-013 2.38542e-015
rhumerus -21.9173 -8.71821 -75.2391
rradius 33.0759
rwrist 17.8102
rhand -0.272295 -54.3933
rfingers 7.12502
rthumb 25.3295 -82.7313
lclavicle -1.13705e-013 2.38542e-015
lhumerus -62.087 21.223 43.0369
lradius 35.1436
lwrist -14.0485
lhand -8.46633 -19.9819
lfingers 7.12502
lthumb 17.4601 9.25395
rfemur 26.9265 7.1566 38.9527
rtibia 4.77083e-014
rfoot -16.1458 -20.9068
rtoes -9.09805
lfemur -26.7847 -11.3701 -20.8666
ltibia 32.5608
lfoot -22.5698 25.793
ltoes 14.5048
587
root 9.6699 14.9838 9.94703 172.998 11.1339 184.051
lowerback 1.32146 7.50457 11.158
upperback -5.50836 10.8218 -0.376273
thorax -4.49155 5.02547 -6.90042
lowerneck 0.691804 -3.24121 -11.3113
upperneck 2.61828 -4.46603 5.18269
head 1.13412 -2.31482 3.66498
rclavicle 2.5842e-014 2.42517e-014
rhumerus -21.7261 -8.93052 -74.8779
rradius 33.0125
rwrist 17.8516
rhand -0.445255 -54.4031
rfingers 7.12502
rthumb 25.1638 -82.7644
lclavicle 2.5842e-014 2.42517e-014
lhumerus -62.0054 21.4428 42.7043
lradius 35.263
lwrist -13.6392
lhand -9.10205 -19.4992
lfingers 7.12502
lthumb 16.8482 9.7899
rfemur 27.0305 7.18302 38.7137
rtibia 2.54444e-014
rfoot -15.9098 -20.8186
rtoes -9.13123
lfemur -26.8361 -10.8505 -21.201
ltibia 32.5773
lfoot -22.2512 25.7904
ltoes 15.9532
588
root 9.67206 14.9773 9.84999 173.174 11.8594 184.166
lowerback 1.61218 7.4559 11.463
upperback -5.61003 10.8371 -0.227451
thorax -4.74554 5.00482 -6.96452
lowerneck 0.693908 -2.94958 -10.9351
upperneck 2.47134 -4.06769 4.89487
head 1.03075 -2.11037 3.49886
rclavicle 3.37934e-014 2.78299e-014
rhumerus -21.693 -9.27009 -74.4997
rradius 32.987
rwrist 17.8689
rhand -0.871903 -53.6573
rfingers 7.12502
rthumb 24.755 -82.0754
lclavicle 3.37934e-014 2.78299e-014
lhumerus -61.9874 21.6965 42.1438
lradius 35.258
lwrist -13.2589
lhand -9.63866 -19.6274
lfingers 7.12502
lthumb 16.3316 9.70497
rfemur 27.31 7.49264 38.8347
rtibia -2.54444e-014
rfoot -15.637 -20.6374
rtoes -9.48889
lfemur -26.6942 -9.7644 -21.2425
ltibia 32.6706
lfoot -21.6237 25.7701
ltoes 15.9882
589
root 9.67243 14.9689 9.74688 173.321 12.5568 184.125
lowerback 1.79691 7.46298 11.6473
upperback -5.66688 10.8936 -0.169897
thorax -4.88388 5.0151 -7.03633
lowerneck 0.698627 -2.67624 -10.5508
upperneck 2.25207 -3.69481 4.76516
head 0.913116 -1.9152 3.3863
rclavicle 2.38542e-014 1.31198e-014
rhumerus -21.5279 -9.80877 -74.1238
rradius 32.9219
rwrist 18.0266
rhand -0.780846 -53.7152
rfingers 7.12502
rthumb 24.8423 -82.1213
lclavicle 2.38542e-014 1.31198e-014
lhumerus -61.7747 21.6828 41.758
lradius 35.3283
lwrist -12.7834
lhand -10.0784 -19.6618
lfingers 7.12502
lthumb 15.9082 9.70477
rfemur 27.6364 7.80974 38.7595
rtibia 4.13472e-014
rfoot -15.5952 -20.3372
rtoes -8.90998
lfemur -26.5434 -8.89595 -21.3941
ltibia 32.8366
lfoot -21.1688 25.8441
ltoes 16.3914
